<svg width="2168" height="1725" viewBox="0 0 2168 1725" fill="none" xmlns="http://www.w3.org/2000/svg">
<g clip-path="url(#clip0_69_12)">
<path d="M1841.25 931.46C1847.73 934.25 1846.91 936.01 1842.43 940.19C1824.26 957.14 1796.46 974.25 1776.1 989.7C1750.02 1009.49 1724.66 1030.49 1697.46 1048.87C1694.63 1050.1 1691.69 1050.75 1688.61 1051.01C1661.86 1053.31 1588.89 1051.39 1582.16 1052.47C1585.13 1055.21 1589.29 1056.97 1592.96 1058.65C1751.16 1131.11 2083.94 1282.11 2093.11 1286.58L2093.13 1286.57C2097.12 1288.52 2125.18 1302.14 2125.76 1303.89C2126.05 1304.76 2126.13 1305.8 2125.06 1306.4C2117.77 1310.47 1773.93 1307.42 1614.09 1308.94L1605.46 1305.58C1508.75 1214.97 1412.7 1123.48 1317.4 1031.5C1314.21 1028.89 1310.09 1027.2 1305.93 1026.99C1192.72 1027.31 926.25 1028.77 911.22 1026.02C909.78 1025.76 907.51 1025.16 906.51 1023.43C906.14 1022.78 903.781 1015.37 910.151 1010.01C945.651 980.142 1002.98 931.396 1003.14 931.26L1841.25 931.46ZM2159.15 885.33L2167.68 886.36C2164.98 886.87 2162.42 887.88 2160.01 889.18C2078.16 933.1 1998.26 987.47 1917.56 1034.2C1912.11 1037.35 1889.84 1050.99 1885.41 1050.99H1736.03C1735.73 1050.7 1737.75 1044.67 1738.17 1043.86C1739.57 1041.15 1887.09 931.83 1892.41 931.26C1915.81 928.74 1943.44 933.6 1967.1 931.01C1986.13 928.92 2014.12 919.57 2033.81 914.81C2075.61 904.71 2117.02 893.7 2159.16 885.32L2159.15 885.33Z" fill="url(#paint0_linear_69_12)"/>
<path d="M704.98 1360.23C640.07 1364.47 567.67 1354.29 503.64 1360.81C485.16 1362.69 477.27 1366.64 464.08 1379.23C404.69 1435.91 345.79 1505.63 289.16 1566.18C269.57 1587.12 238.37 1613.07 222.17 1635.14C210.64 1650.84 215.38 1663.11 235.08 1664.2C307.49 1659.36 387.67 1670.38 459.15 1664.2C473.31 1662.97 480.21 1658.83 490.12 1649.19C559.29 1563.45 642.83 1484.14 711.01 1398.25C724.19 1381.65 733.78 1367.42 704.98 1360.24V1360.23ZM2084.26 88.8999C2036.84 88.0399 1988.35 89.0699 1940.62 88.5999C1897.58 88.1799 1854.48 89.8299 1811.48 87.7799C1802.51 85.1799 1805.29 70.0099 1805.85 61.8099C1806.97 45.2699 1822.3 5.68993 1796.62 2.66993C1772.98 -0.110075 1739.47 2.90993 1714.53 2.79993C1614.44 2.35993 1513.05 2.73993 1412.8 0.629925C1398.47 0.329925 1357.25 -4.63007 1370.62 18.8299C1380.76 25.5599 1437.07 45.0599 1440.8 52.7099C1442.12 55.4099 1439.02 79.8099 1437.26 83.2299C1435.65 86.3399 1433.59 87.5399 1430.28 88.2399C1425.53 89.2499 1409.93 90.7599 1404.72 90.8499C1287.3 92.8799 1153.81 96.4599 1036.77 90.7699C1030.1 90.4499 1005.08 89.1999 1002.88 84.6899C995.19 68.9199 1024.98 8.09993 996.84 2.74993C861.54 2.48993 575.14 -1.33007 566.15 3.80993C561.13 6.67993 560.64 14.1399 564.57 18.1999C570.69 24.5099 611.71 37.6699 624.08 45.6299C626.89 47.4399 631.58 49.5899 632.98 52.7199C635.53 58.3899 633.32 80.1999 630.18 85.3599C628.34 88.3899 608.22 90.4599 603.11 90.7599C515 95.9599 421.88 86.5999 333.24 90.7899C330 91.0799 327.56 92.7199 325.1 94.6499C309.55 106.83 318.71 150.71 306.74 154.26C234.31 154.51 162.28 154.6 90.22 160.68C89.7 163.57 93.99 163.26 96.15 163.7C125.46 169.68 266.96 179.94 306.14 182.66C308.65 185.08 290.56 246.26 313.26 246.5L600.59 247.07C612.58 249.98 606.19 257.25 605.94 265.53C605.63 275.72 602.17 300.62 615.26 302.03C631.38 302.09 926.33 306.96 958.72 302.41C989.76 298.05 964.52 248.88 994.9 246.62C1126.57 251.96 1263.83 239.5 1394.85 246.52C1401.31 246.87 1407.29 248.79 1413.74 248.62C1415 261.33 1404.96 287.74 1413.63 297.69C1417.31 301.91 1432.57 302.62 1438.65 302.7C1478.83 303.2 1691.05 303.43 1752.72 302.7C1756.07 302.66 1767.53 302.31 1769.66 301.68C1789.68 295.78 1772.47 250.12 1797.08 247.1L2028.32 246.82C2030.77 247.45 2034.09 247.69 2036.19 248.95C2046.33 255.04 2048.92 316.07 2057.79 329.31C2059.19 331.39 2060.28 333.42 2062.9 334.22C2076.99 338.52 2078.77 325.53 2080.95 315.05C2092.07 261.51 2102.54 177.45 2106.49 122.74C2107.9 103.16 2108.08 89.3199 2084.27 88.8899L2084.26 88.8999ZM1940.63 342.51L798.93 342.57C794.01 342.94 793.37 348.18 792.48 352.11C786.56 378.36 779.18 434.61 777.99 461.56C777.06 482.77 782.94 481.46 802.85 482.64C854.84 485.7 919 480.27 972.97 480.46C1168.39 481.17 1364.72 480.28 1560.65 480.57C1566.8 483.03 1583 480.91 1585.33 487.87C1587.63 494.76 1582.27 534.47 1577.71 539.57C1571.08 546.98 1557.95 543.73 1548.76 546.61H754.87C744.99 544.87 729.4 547.05 729.88 533.49C734.52 475.43 748.4 415.44 751.93 357.59C752.29 351.65 754.08 343.77 746.96 342.61H407.08C404.29 342.61 391.59 349.69 389.17 352.69C384.29 358.73 381.54 373.87 380.32 381.83C365.82 476.9 357.75 575.72 346.08 671.47C338.76 731.52 330.23 791.6 322.03 851.55C319.77 857.49 328.55 864.43 333.11 864.43H636C636.23 867.82 631.64 866.26 628.92 868.34C606.42 885.51 582.44 916.15 559.03 932.41C556.46 934.19 554.29 936.14 550.92 936.29L197.08 936.32C176.06 938.16 172.21 949.15 168.68 967.9C163.09 997.62 155.65 1047.75 154.19 1077.39C153.77 1085.89 155.63 1100.34 167.17 1100.34H374.1L203.55 1252.67C141.42 1275.4 68.94 1278.27 5.79998 1296.93C2.11998 1298.02 -0.900023 1297.19 0.239977 1302.26C16.34 1303.3 33.15 1303.07 49.19 1304.29C199 1315.71 528.22 1318.2 538.61 1315.84C542.5 1314.96 552.38 1306.41 556.05 1303.29C623.61 1245.99 685.74 1168.36 753.92 1111.3C757 1108.72 765.97 1100.95 768.98 1100.37L1389.88 1101.26C1365.66 1078.05 1341.49 1054.8 1317.37 1031.51C1314.17 1028.9 1310.06 1027.21 1305.9 1027C1192.69 1027.32 926.22 1028.78 911.19 1026.03C909.75 1025.77 907.49 1025.17 906.48 1023.44C906.1 1022.79 903.75 1015.38 910.12 1010.02C939.54 985.27 983.92 947.58 998.38 935.3L939.89 935.4L1015.88 865.45C1171.85 861.92 1762.46 865.01 1892.62 864.51C1910.26 864.44 1912.08 862.71 1915.3 845.21L1973.56 373.51C1974.08 353.5 1959.83 342.22 1940.6 342.53L1940.63 342.51ZM1558.58 716.36C1553.43 726.87 1538.07 723.46 1528.67 726.43L730.9 726.53C727.61 726.29 713.47 724.51 711.92 723.52C704.77 718.95 711.17 677.9 714.4 669.89C717.19 662.97 719.37 661.33 726.94 660.44C986.33 659.24 1246.12 662.8 1505.29 659.07C1518.82 658.88 1532.93 657.3 1546.43 658.74C1553.49 659.49 1562.58 660.5 1564.86 668.44C1566.11 672.77 1560.79 711.84 1558.58 716.36ZM1811.3 1379.51C1802.32 1366.5 1790.17 1361.49 1774.67 1360.16C1714.35 1354.99 1646.26 1363.78 1585.14 1360.71C1567.08 1364.79 1568.1 1378.82 1570.57 1394.33C1595.86 1472.02 1615.85 1551.67 1641.61 1629.18C1649.78 1653.76 1653 1667.67 1682.56 1670.2C1745.17 1675.56 1815.22 1665.99 1878.63 1670.2C1908.05 1667.74 1904.31 1650.49 1898.08 1628.62C1874.44 1545.59 1837.22 1462.23 1811.29 1379.53L1811.3 1379.51ZM1486.23 1388.69C1479.23 1368.29 1474.85 1354.22 1450.78 1352.16C1390.43 1347.01 1322.4 1355.75 1261.26 1352.71C1248.66 1354.81 1245.57 1361.14 1244.19 1373.19C1269.54 1458.42 1284.81 1552.48 1312.34 1636.55C1318.51 1655.39 1321.9 1668.18 1344.68 1670.19C1405.16 1666.47 1470.93 1674.86 1530.77 1670.19C1552.77 1668.47 1562.09 1662.5 1556.37 1638.44C1529.43 1557.49 1513.76 1468.97 1486.24 1388.69H1486.23ZM1193.91 1171.19L869.41 1170.83C854.83 1176.94 854.36 1193.59 852.18 1207.54C836.51 1307.93 829.71 1410.56 813.65 1510.89C812.04 1520.98 810.7 1537.29 806.94 1546.17C803.57 1554.11 777.8 1577.58 769.98 1585.18C741.33 1613.02 711.12 1639.7 682.01 1667.15C671.47 1677.09 631.86 1702.26 650.5 1719.58C653.32 1722.2 662.76 1723.83 666.9 1724.18L1032.82 1724.06C1108.67 1711.9 1145.62 1661.46 1157.57 1588.9C1178.11 1464.13 1184.9 1334.31 1205.77 1209.25C1205.37 1194.76 1210.03 1178.34 1193.9 1171.18L1193.91 1171.19Z" fill="url(#paint1_linear_69_12)"/>
</g>
<defs>
<linearGradient id="paint0_linear_69_12" x1="1341" y1="981" x2="2167.69" y2="968.15" gradientUnits="userSpaceOnUse">
<stop stop-color="#FF8808"/>
<stop offset="1" stop-color="#FE5C00"/>
</linearGradient>
<linearGradient id="paint1_linear_69_12" x1="-2.26272e-05" y1="862.09" x2="2107" y2="862.09" gradientUnits="userSpaceOnUse">
<stop stop-color="#0A85CF"/>
<stop offset="1" stop-color="#0DCEFF"/>
</linearGradient>
<clipPath id="clip0_69_12">
<rect width="2167.69" height="1724.18" fill="white"/>
</clipPath>
</defs>
</svg>
